<svg width="24" height="24" viewBox="0 0 24 24" xmlns="http://www.w3.org/2000/svg">
  <g fill="none" fill-rule="evenodd">
    <path d="M23.04 12.261c0-.815-.073-1.6-.21-2.352H12v4.448h6.19a5.29 5.29 0 0 1-2.296 3.471v2.886h3.717c2.174-2.002 3.429-4.95 3.429-8.453z" fill="#4285F4"/>
    <path d="M12 24c3.105 0 5.708-1.03 7.61-2.786l-3.716-2.886c-1.03.69-2.347 1.098-3.894 1.098-2.995 0-5.53-2.023-6.433-4.741H1.723v2.98A11.996 11.996 0 0 0 12 24z" fill="#34A853"/>
    <path d="M5.567 14.685a7.21 7.21 0 0 1 0-5.37V6.335H1.723a11.996 11.996 0 0 0 0 10.33l3.844-2.98z" fill="#FBBC05"/>
    <path d="M12 4.773c1.688 0 3.204.58 4.396 1.72l3.299-3.299C17.703 1.241 15.1 0 12 0A11.996 11.996 0 0 0 1.723 6.335l3.844 2.98C6.47 6.596 9.005 4.774 12 4.774z" fill="#EA4335"/>
  </g>
</svg>