<svg width="46" height="46" viewBox="0 0 46 46" xmlns="http://www.w3.org/2000/svg">
  <g fill="none" fill-rule="evenodd" transform="translate(3 3)">
    <path d="M40.64 18.64c0-1.22-.1-2.12-.34-3.05H21v5.55h11.26c-.23 1.78-1.48 4.46-4.27 6.26l-.04.26 6.21 4.81.43.04C38.52 29.02 40.64 24.33 40.64 18.64" fill="#4285F4"/>
    <path d="M21 36c5.67 0 10.43-1.84 13.9-5l-6.62-5.14c-1.78 1.2-4.17 2.04-7.28 2.04-5.56 0-10.27-3.64-11.94-8.67l-.24.02-6.48 5-.08.23C5.96 30.64 12.9 36 21 36" fill="#34A853"/>
    <path d="M9.06 19.23C8.63 18.03 8.38 16.73 8.38 15.38s.25-2.65.68-3.85l-.01-.26-6.54-5.05-.21.1C.82 9.42 0 12.33 0 15.38c0 3.05.82 5.96 2.3 8.06l6.76-4.21" fill="#FBBC05"/>
    <path d="M21 6.3c3.94 0 6.6 1.68 8.12 3.1l5.93-5.7C31.38 1.38 26.67 0 21 0 12.9 0 5.96 5.36 2.3 13.32l6.76 4.21C10.73 9.94 15.44 6.3 21 6.3" fill="#EA4335"/>
  </g>
</svg>
